<svg xmlns="http://www.w3.org/2000/svg" viewBox="0 0 450 600">
  <!-- Backer panel (slightly larger, offset for depth) -->
  <g id="backer">
    <rect x="4" y="4" width="450" height="600" rx="6" fill="#1a1a1a"/>
  </g>
  <!-- Face panel -->
  <g id="face-fill">
    <rect x="0" y="0" width="450" height="600" rx="6" fill="#3a3f47"/>
  </g>
  <!-- Accent bar -->
  <g id="accent-bar">
    <rect x="0" y="0" width="450" height="18" rx="6" fill="#c9a84c"/>
    <rect x="0" y="6" width="450" height="12" fill="#c9a84c"/>
  </g>
  <!-- Title area -->
  <g id="text-primary">
    <text x="225" y="58" text-anchor="middle" dominant-baseline="central" font-size="28" font-family="Montserrat, sans-serif" fill="#e8e0d0" font-weight="700" letter-spacing="6">DIRECTORY</text>
  </g>
  <!-- Thin divider under title -->
  <rect x="40" y="78" width="370" height="1.5" fill="#c9a84c" opacity="0.6"/>
  <!-- Insert panel for directory listings -->
  <g id="insert-background">
    <rect x="30" y="95" width="390" height="420" rx="3" fill="#f5f0e8"/>
  </g>
  <g id="insert-text">
    <!-- Placeholder directory rows -->
    <!-- Row 1 -->
    <text x="55" y="132" font-size="14" font-family="Montserrat, sans-serif" fill="#1a1a1a" font-weight="600">Suite 100</text>
    <text x="395" y="132" text-anchor="end" font-size="14" font-family="Montserrat, sans-serif" fill="#3a3f47" font-weight="400">Management Office</text>
    <line x1="50" y1="142" x2="400" y2="142" stroke="#c9a84c" stroke-width="0.5" opacity="0.4"/>
    <!-- Row 2 -->
    <text x="55" y="167" font-size="14" font-family="Montserrat, sans-serif" fill="#1a1a1a" font-weight="600">Suite 200</text>
    <text x="395" y="167" text-anchor="end" font-size="14" font-family="Montserrat, sans-serif" fill="#3a3f47" font-weight="400">Architectural Partners</text>
    <line x1="50" y1="177" x2="400" y2="177" stroke="#c9a84c" stroke-width="0.5" opacity="0.4"/>
    <!-- Row 3 -->
    <text x="55" y="202" font-size="14" font-family="Montserrat, sans-serif" fill="#1a1a1a" font-weight="600">Suite 300</text>
    <text x="395" y="202" text-anchor="end" font-size="14" font-family="Montserrat, sans-serif" fill="#3a3f47" font-weight="400">Legal Associates LLC</text>
    <line x1="50" y1="212" x2="400" y2="212" stroke="#c9a84c" stroke-width="0.5" opacity="0.4"/>
    <!-- Row 4 -->
    <text x="55" y="237" font-size="14" font-family="Montserrat, sans-serif" fill="#1a1a1a" font-weight="600">Suite 400</text>
    <text x="395" y="237" text-anchor="end" font-size="14" font-family="Montserrat, sans-serif" fill="#3a3f47" font-weight="400">Capital Financial Group</text>
    <line x1="50" y1="247" x2="400" y2="247" stroke="#c9a84c" stroke-width="0.5" opacity="0.4"/>
    <!-- Row 5 -->
    <text x="55" y="272" font-size="14" font-family="Montserrat, sans-serif" fill="#1a1a1a" font-weight="600">Suite 500</text>
    <text x="395" y="272" text-anchor="end" font-size="14" font-family="Montserrat, sans-serif" fill="#3a3f47" font-weight="400">Healthcare Solutions</text>
    <line x1="50" y1="282" x2="400" y2="282" stroke="#c9a84c" stroke-width="0.5" opacity="0.4"/>
    <!-- Row 6 -->
    <text x="55" y="307" font-size="14" font-family="Montserrat, sans-serif" fill="#1a1a1a" font-weight="600">Suite 600</text>
    <text x="395" y="307" text-anchor="end" font-size="14" font-family="Montserrat, sans-serif" fill="#3a3f47" font-weight="400">Tech Innovations Inc</text>
    <line x1="50" y1="317" x2="400" y2="317" stroke="#c9a84c" stroke-width="0.5" opacity="0.4"/>
    <!-- Remaining rows shown as faded placeholders -->
    <rect x="50" y="332" width="180" height="10" rx="2" fill="#d0cbc3" opacity="0.4"/>
    <rect x="280" y="332" width="120" height="10" rx="2" fill="#d0cbc3" opacity="0.3"/>
    <rect x="50" y="362" width="160" height="10" rx="2" fill="#d0cbc3" opacity="0.4"/>
    <rect x="290" y="362" width="110" height="10" rx="2" fill="#d0cbc3" opacity="0.3"/>
    <rect x="50" y="392" width="170" height="10" rx="2" fill="#d0cbc3" opacity="0.4"/>
    <rect x="270" y="392" width="130" height="10" rx="2" fill="#d0cbc3" opacity="0.3"/>
    <rect x="50" y="422" width="150" height="10" rx="2" fill="#d0cbc3" opacity="0.4"/>
    <rect x="300" y="422" width="100" height="10" rx="2" fill="#d0cbc3" opacity="0.3"/>
    <rect x="50" y="452" width="190" height="10" rx="2" fill="#d0cbc3" opacity="0.4"/>
    <rect x="260" y="452" width="140" height="10" rx="2" fill="#d0cbc3" opacity="0.3"/>
    <rect x="50" y="482" width="140" height="10" rx="2" fill="#d0cbc3" opacity="0.4"/>
    <rect x="310" y="482" width="90" height="10" rx="2" fill="#d0cbc3" opacity="0.3"/>
  </g>
  <!-- Building info line -->
  <g id="text-room-number">
    <text x="225" y="545" text-anchor="middle" dominant-baseline="central" font-size="13" font-family="Montserrat, sans-serif" fill="#e8e0d0" font-weight="400" letter-spacing="2">ONE METROPOLITAN SQUARE</text>
  </g>
  <!-- Braille zone -->
  <g id="text-braille">
    <g transform="translate(165, 570)">
      <!-- Braille dots placeholder for DIRECTORY -->
      <circle cx="0" cy="0" r="2" fill="#e8e0d0"/>
      <circle cx="0" cy="8" r="2" fill="#e8e0d0"/>
      <circle cx="8" cy="0" r="2" fill="#e8e0d0"/>
      <circle cx="8" cy="8" r="2" fill="#e8e0d0"/>
      <circle cx="16" cy="0" r="2" fill="#e8e0d0"/>
      <circle cx="24" cy="0" r="2" fill="#e8e0d0"/>
      <circle cx="24" cy="8" r="2" fill="#e8e0d0"/>
      <circle cx="32" cy="0" r="2" fill="#e8e0d0"/>
      <circle cx="40" cy="0" r="2" fill="#e8e0d0"/>
      <circle cx="40" cy="8" r="2" fill="#e8e0d0"/>
      <circle cx="48" cy="0" r="2" fill="#e8e0d0"/>
      <circle cx="48" cy="8" r="2" fill="#e8e0d0"/>
      <circle cx="56" cy="0" r="2" fill="#e8e0d0"/>
      <circle cx="56" cy="8" r="2" fill="#e8e0d0"/>
      <circle cx="64" cy="0" r="2" fill="#e8e0d0"/>
      <circle cx="72" cy="0" r="2" fill="#e8e0d0"/>
      <circle cx="72" cy="8" r="2" fill="#e8e0d0"/>
      <circle cx="80" cy="0" r="2" fill="#e8e0d0"/>
      <circle cx="80" cy="8" r="2" fill="#e8e0d0"/>
      <circle cx="88" cy="0" r="2" fill="#e8e0d0"/>
      <circle cx="88" cy="8" r="2" fill="#e8e0d0"/>
      <circle cx="96" cy="0" r="2" fill="#e8e0d0"/>
      <circle cx="104" cy="0" r="2" fill="#e8e0d0"/>
      <circle cx="104" cy="8" r="2" fill="#e8e0d0"/>
      <circle cx="112" cy="0" r="2" fill="#e8e0d0"/>
      <circle cx="112" cy="8" r="2" fill="#e8e0d0"/>
    </g>
  </g>
</svg>